<svg xmlns="http://www.w3.org/2000/svg" viewBox="0 0 300 300"><path d="M9.5 174.3v-31h16.6v19.2h33.4v-26.7h-50v-11.7c.6 0 1.1-.1 1.7-.1h51.7c1 0 2.2.5 2.9 1.2 3.2 3 6.4 6.2 9.5 9.4.6.6 1.1 1.7 1.1 2.5.1 7.9.1 15.8 0 23.8 0 .9-.4 2-1 2.6-3.1 3.3-6.3 6.5-9.6 9.6-.7.6-1.8 1.1-2.7 1.1-17.8.1-35.6.1-53.6.1zm234.3-.1H227v-50.3h53.5c1 0 2.2.5 2.9 1.2 3.2 3.1 6.4 6.2 9.5 9.5.6.6 1 1.6 1 2.4.1 4.2.1 8.4 0 12.6 0 .8-.4 1.7-.9 2.2-3.3 3.4-6.6 6.7-10 10-.4.4-1 .7-1.5.8h-30.1v-11.9H277v-14.9h-33.2v38.4zm-92.1.1c8.6-8.5 16.9-16.7 25.3-25.1-8.5-8.5-16.7-16.7-25.3-25.2h16.1c.5 0 1.1.4 1.5.8 8 7.9 15.9 15.9 23.8 23.8.1.1.2.3.5.8-4.1 4-8.2 8-12.3 12.1-3.9 3.8-7.7 7.7-11.6 11.5-.7.7-1.9 1.2-2.9 1.2-4.9.2-9.7.1-15.1.1zm46.9-30.9c-2.4-2.4-5.2-5.1-8-8 3.6-3.6 7.2-7.2 10.9-10.7.4-.4 1-.6 1.6-.6h15.2c-6.6 6.3-13.1 12.7-19.7 19.3zm-8 19.6l8.2-8.2 19.5 19.5h-15.4c-.6 0-1.3-.5-1.8-1-3.5-3.4-7-6.8-10.5-10.3zm-49.1-37.6c-1-1-2-1.5-3.4-1.5-17.1.1-34.2 0-51.3 0-.6 0-1.3.1-2 .1v11.6h66.9c-3.6-3.5-7-6.8-10.2-10.2zm7.9 37.1h-47.6v-7.6c10.8 0 21.6.1 32.5.1.2 0 .3-.2.5-.2 0-.1.1-.3.1-.4v-11.1H98.4c-4.3 0-8.6 0-13 .1-.1-.1-.2 0-.3 0 0 10.3-.1 20.6-.1 30.8.2 0 .4.1.6.1h53.5c.6 0 1.3-.3 1.7-.7 3.2-3.1 6.2-6.3 9.4-9.5-.6-.3-1.2-.8-1.8-.9.6.1 1.2.6 1.8.9.4-.4.8-.7 1.2-1.1 0-.1.1-.1.1-.2v-.2c-.8 0-1.4-.1-2.1-.1zM85 143.4c0 10.3-.1 20.6-.1 30.8-.1-.4-.3-.9-.3-1.3v-28.3c.1-.4.3-.8.4-1.2z" fill="#212427"/></svg>