<svg xmlns="http://www.w3.org/2000/svg" viewBox="0 0 300 300"><path d="M140.8 178.7l54.1-54.1h-33v31.3l-8.5.2c-13.7 0-24.9-11.2-24.9-24.9s11.2-25.4 25.6-25.4h38.8V86.1h-42c-26.3 0-47.3 21-47.3 46.8 0 22.1 15.7 41.4 37.2 45.8zm-38.3 19.1h4.2v17.9h-4.2zm-22.3 9c0 4.3 2.9 9.1 8.7 8.8l8.6-.4v-9.7h-4.2v7h-5.1c-2.2 0-4-4.1-3.8-5.9.1-1.8 2.2-5.6 5.3-5.6h7.9v-3h-7.1c-7 0-10.3 4.6-10.3 8.8zm30.1 0c0 4.3 2.9 9.1 8.7 8.8l8.6-.4v-9.7h-4.2v7h-5.1c-2.2 0-4-4.1-3.8-5.9.1-1.8 2.2-5.6 5.3-5.6h7.9v-3h-7.1c-7 0-10.3 4.6-10.3 8.8zm32.6-9h-4.6l-2.1 4.2-6.3 13.6h4.4l1.6-4.2h8.9l1.4 4.2h4.2l-1.8-4.2-5.7-13.6zm-5.6 10.7l3.3-8 2.9 8h-6.2zm52.1-7.8h5.7v15h4v-15h5.7v-2.9h-15.4zm31.4 0v-2.9h-12.9v17.9h12.9v-2.9h-9v-4.9h7.9v-2.8h-7.9v-4.4zm-54.6 6.5c-.6-.5-1.3-.8-2.1-.8 1.1-.3 1.9-.8 2.4-1.5.6-.7.9-1.6.8-2.5 0-.8-.2-1.5-.7-2.2-.4-.7-1.1-1.3-2-1.7-.9-.5-1.9-.7-3.1-.7h-8.2v17.9h8.9c1.3 0 2.4-.2 3.3-.6.9-.4 1.5-1 1.9-1.7.4-.7.6-1.5.6-2.3 0-.7-.2-1.5-.5-2.1-.2-.7-.7-1.3-1.3-1.8zm-9-6.9h3.3c.5 0 .9.1 1.3.2.3.1.7.3.9.5.5.5.7 1 .7 1.6 0 .6-.3 1.2-.8 1.7-.6.5-1.3.8-2.2.8h-3.3v-4.8zm6.1 12c-.3.3-.6.5-1 .6-.4.1-.8.2-1.3.2h-3.7v-5.2h3.7c.7 0 1.2.1 1.7.4.5.3.9.6 1.1 1 .2.4.4.8.4 1.3-.1.6-.4 1.2-.9 1.7zm15.5-6.9l-4.2-7.6h-4.4l6.3 10.3v7.6h4v-7l6.7-10.9h-4.4zm-.1-24.5l39.2-39.2h-39.2z" fill="#212427"/></svg>