<svg xmlns="http://www.w3.org/2000/svg" viewBox="0 0 300 300"><path d="M290.4 146.8c-2.9-3.7-9.7-5.7-19.5-5.7-16.6 0-27.8 5.5-30.7 15.1-1 3.5-.7 6.4 1 8.6 3 3.7 9.7 5.6 19.6 5.6 16.6 0 27.8-5.5 30.7-15.1 1.1-3.4.7-6.2-1.1-8.5zm-17.8 9.4c-2 6.6-4.6 9.1-9.1 9.1-2 0-3.5-.6-4.3-1.6-1.2-1.6-1.2-4.1.1-8.3 2-6.5 4.6-9.1 9.1-9.1 2 0 3.4.6 4.3 1.7 1.2 1.6 1.2 4-.1 8.2zm-44-14.1h17.6c-1.1 1.4-20.2 27.1-20.5 27.5h-26.9c-.1-.8-3.3-26.5-3.5-27.5h16.5l2.4 19.3s14.2-18.9 14.4-19.3m-36.5 4.7c-3-3.7-9.7-5.7-19.6-5.7-16.5 0-27.7 5.5-30.7 15.1-1 3.5-.7 6.4 1.1 8.6 3 3.7 9.7 5.6 19.6 5.6 16.5 0 27.7-5.5 30.7-15.1 1-3.4.7-6.2-1.1-8.5zm-18 9.4c-2 6.6-4.6 9.1-9.1 9.1-2 0-3.4-.6-4.3-1.6-1.3-1.6-1.3-4.1.1-8.3 2-6.5 4.6-9.1 9.1-9.1 2 0 3.4.6 4.3 1.7 1.3 1.6 1.2 4-.1 8.2zm-33.7-10.7c.7.9 1 1.7.9 3l-6.9 21.2h-18.2l6.4-19.8c.2-.9-.1-1.6-.6-2.2-.9-1.1-2.7-1.7-9.1-1.3 0 0-7.5 22.9-7.7 23.2h-18c.2-.5 8.5-26 8.6-26.3 6.3-1.1 14.7-2.2 23.3-2.2 11.8.1 18.9 1.5 21.3 4.4m-52.7.6c-2.7-3.3-8.5-4.9-17.4-4.9-15.9 0-26.8 5.4-29.7 14.9-1.2 4-.9 7.1.9 9.3 3.6 4.5 12.3 5.1 17.2 5.1 12.9-.1 19.4-2.2 20.6-2.6.1-.3 2.8-6.2 3.3-7.6-2.7 1.2-12.1 5.2-19.1 4.9-2.8-.1-4.5-.4-6.1-1.5-1.2-.8-.9-2.4-.9-2.4s31.7-7 32.3-7.2c.3-.5.6-1.6.6-2.9-.1-2-.6-3.7-1.7-5.1zm-13.6 5.2l-17 8 2.2-8.1c1.1-3.5 4.4-5.6 8.8-5.6 3.1 0 4.6 1.1 5.3 2 .5.7 1 2 .7 3.7zm-46.7-22.6h18c-.4 1.2-12.5 40.2-12.7 40.9h-18c.4-1.2 12.6-40.2 12.7-40.9" fill="#212427"/></svg>