<svg xmlns="http://www.w3.org/2000/svg" viewBox="0 0 300 300"><path d="M95.2 95v108.7h108.7V95H95.2zm48.9 48.7V177c0 .4-.3.6-.6.6h-12.2c-.4 0-.6-.3-.6-.6v-33.2c0-.4.3-.6.6-.6h12.2c.3-.1.6.2.6.5zm24 33.9H156c-.4 0-.6-.3-.6-.6v-35.1c0-4.9-4-8.9-8.9-8.9h-26.3c-.4 0-.6.3-.6.6V177c0 .4-.3.6-.6.6h-12.2c-.4 0-.6-.3-.6-.6v-55.3c0-.3.3-.6.6-.6h45.8c9 0 16.3 7.3 16.3 16.3V177c-.1.3-.4.6-.8.6zm24.9-55.9V177c0 .4-.3.6-.6.6h-12.2c-.4 0-.6-.3-.6-.6v-55.3c0-.4.3-.6.6-.6h12.2c.3 0 .6.2.6.6z" fill="#212427"/></svg>