<svg xmlns="http://www.w3.org/2000/svg" viewBox="0 0 300 300"><path d="M87.5 149.7c-.1.4-.2.6-.3.9-.7 2.3-1.6 4.5-2.7 6.6-2.3 4.3-5.2 7.9-9.1 10.8-4.7 3.6-10.1 5.9-16 6.7-3.1.4-6.3.6-9.5.7-9.4.1-18.8 0-28.2 0-1.1 0-1.1 0-1.1-1.1v-70c0-.8.2-1.1 1.1-1.1 10.7 0 21.4 0 32 .1 7.8.1 15 2.3 21.4 7 3.4 2.5 6.3 5.6 8.4 9.3 1.3 2.3 2.5 4.7 3.4 7.3.1.2.2.5.3.8.4-.2.7-.4 1.1-.7 14.4-9.2 28.7-18.4 43-27.7.6-.4 1-.4 1.6 0 4.9 3.3 9.7 6.6 14.6 9.9.2.2.5.3.8.6-11.6 7.5-23.2 14.9-34.9 22.5.7.5 1.4.9 2 1.4 1 .7 2 1.3 2.9 2 .5.4.9.4 1.5 0 11.1-7 22.1-14.1 33.2-21.1.3-.2.6-.4.9-.5.3-.1.6-.1.8 0 4.9 3.2 9.7 6.4 14.7 9.8-11.6 7.7-23.1 15.3-34.8 22.9 1.6 1 3.1 1.7 4.4 2.7 1.1.8 1.9.7 3.1 0 10.9-7 21.9-14 32.9-21 .7-.5 1-1 1-1.9v-23.4h25.9v49.1h23c0 .4.1.7.1 1v21c0 .8-.2 1-1 1h-47c-.3 0-.6 0-1-.1v-23.6c-.5.3-.8.5-1.2.7-14 9-27.9 18-41.9 27-.6.4-1 .4-1.6 0-14.2-9.6-28.5-19.3-42.7-28.9-.3-.2-.7-.4-1.1-.7zm-42.2-23.8c0 .2-.1.3-.1.5v25.3c0 .6.2.7.8.7 2.5-.1 5 0 7.4-.2 4.5-.3 7.7-2.7 9.7-6.6 1.8-3.5 1.9-7.2.9-10.9-.8-3-2.5-5.4-5.2-7.1-1.7-1-3.5-1.8-5.5-1.8-2.6 0-5.2.1-8 .1zm186.2 49.5v-72.1h26v49.1h22c.8 0 1 .2 1 1v21c0 .8-.2 1.1-1 1h-48z" fill="#212427"/></svg>