<svg xmlns="http://www.w3.org/2000/svg" viewBox="0 0 300 300"><path d="M255.7 167.9c-13.4.1-26 .2-29.5-.1-7.1-.6-11.9-5.3-12.4-12.1-.4-4.5-.4-8.2 0-11.8.6-6.7 6.2-13 12.5-13.3 2.2-.1 8.2-.1 19-.1l31.5.1v-13.1s-25.1 0-32.6-.1c-10.1 0-15.2-.1-18.4.1-7.1.3-13 2.8-17.7 7.5-4.4 4.4-7 11.5-7.4 18.6-.2 3.8-.3 8.9 0 11.9.7 7.7 3.2 13.7 7.4 17.9 4.5 4.5 11.2 7.4 17.7 7.5 5.3.1 51 0 51 0v-13.1c-.2 0-14.1.1-21.1.1zm-142.1-49.7v13h31v49.4h13.1v-49.4h31.1v-13h-75.2zM100 142.8c-.1-7-2.6-13-7.4-17.9-5-5.1-12.7-7.2-17.7-7.5-4.3-.2-21.5-.2-25.5 0-5.7.2-9.8 1.9-11.9 3.5V97.2H24.4v83.7h13.1s-.3-34.3 0-38c.5-6.6 5.6-11.8 12-12.4 5.1-.4 20.6-.3 25.4 0 6.7.5 11.6 5.7 11.9 12.7.1 2.6 0 37.7 0 37.7H100v-38.1z" fill="#212427"/></svg>