<svg xmlns="http://www.w3.org/2000/svg" viewBox="0 0 300 300"><path d="M265.6 108.4c-8.8.6-16 3.4-22.3 13.3l2.4-12h-20.6c-.6 3-1.2 6-2 9.1-1.6-9.5-15.7-11.8-25.7-11.3-22.9 1.2-46.2 15-48.9 40.6-.2 1.9-.2 3.8.1 5.4.2 1.3.5 2.6 1 3.8-5.5 1.5-11.2 2.4-16.9 2.4-13.3 0-20.8-9.1-17.3-22.1 2.6-10.3 11.7-15.6 21.5-16.3 6.3-.6 12.6.6 17.2 1.9l6.4-12.7c-7.2-1.7-13.7-2.4-20.8-2.4-17.3.2-35.1 7.8-41.9 22.5.2-1.4.2-2.7.1-4.1-1.2-14.2-14.1-18.2-31.3-18.2-9.2 0-19.3 1.3-27.1 3.9L36.7 125c8-2.6 16.2-5.5 26.1-5.5 11 0 18.8 3.9 15.4 13.4-15.7 0-52.7-2.2-52.9 21.7 0 14.6 13.7 17 25.1 17 12.4-1 23.5-1.3 37.2-1.3l7.1-27.8c.1-.2.1-.4.2-.7v.3c-.9 19.5 14.1 28.9 34.6 29.3 6.9.2 14.4-.9 20.2-2.1l2.1-8.1c5.9 8 18.3 11 28.7 11 11.7-.1 20.1-4.7 28.3-12.8.5-.5.7-2 .2-2.7-.7-.9-1.8-1.2-2.8-.1-5.2 5.9-14.8 10.5-22.6 10.4-9.4-.3-18.2-5-19.5-15-.3-2.8.1-6.6.6-10.2 3.5-2.8 16.3-2.7 26.6-3 9.9-.2 24-3.1 29.6-10.7-3.6 13.7-8 28.4-11.6 42.2h21.3l7.1-27c3.1-11.8 12.2-20 24.3-19.8 3 0 6.5.6 9.7 1.4l4-15.7c-3.3-.5-7.1-.9-10.1-.8zm-210 52.8c-5.8 0-12.7-1-12.7-7.6 0-13.2 24.4-11.2 33-11.2-2.8 13.5-5.2 18.8-20.3 18.8zm134.9-27.1c-8 1-20.4.8-23.9 2.5 4.7-12.8 15.1-23.3 31.1-25.6 6.8-.9 14.1.9 14.6 9.2.3 7.7-12.5 12.8-21.8 13.9z" fill="#212427"/></svg>