<svg id="Слой_1" xmlns="http://www.w3.org/2000/svg" viewBox="0 0 300 300"><style>.st0{fill:#212427}</style><path class="st0" d="M34.5 138.2l18.2 1-25.1 39.1H8zm40.9-1H35.1l10.4-15.7h30.4v12.1c1.7-7 8.1-12.2 15.6-12.2h50.9v15.8h-67zm69.5-15.7h15.9v15.7h-15.9zm49.6 0h15.9v15.7h-15.9zm86.5 15.7h-70.4c.2-8.7 7.3-15.8 16.1-15.8H281v15.8z"/><path class="st0" d="M194.5 121.5h15.9v15.7h-15.9zm32.1-.1c-8.7 0-15.9 7.1-16.1 15.8h70.4v-15.8h-54.3zM34.5 138.2L8 178.3h19.6l25.1-39.1zm57-16.8c-7.5 0-13.9 5.2-15.6 12.2v-12.1H45.5l-10.4 15.7h107.3v-15.8H91.5zm53.4.1h15.9v15.7h-15.9zm120 22.4l-3-.1c-17-.7-34-1.6-51.1-2.5 1.3 6.7 7 12.2 15.8 13.4l37.1 2.3c1.5 0 2.8 1.2 2.8 2.8 0 1.5-1.2 2.8-2.8 2.8h-53.4v-21.3l-15.9-.8v18.2c0 2.6-2.1 4.6-4.6 4.6h-24.5c-2.6 0-4.6-2.1-4.6-4.6v-19.9l-15.9-.8v18.1c-1.8-6.8-8.1-11.8-15.6-11.8l-69.9-4.6v38.7h69.9c7.8 0 14.3-5.6 15.8-13 1.3 7.4 7.7 13 15.4 13h34.2c7.6 0 14-5.6 15.4-12.8v12.8h54.8c8.8 0 16.1-7.2 16.1-16.1V160c.1-8.9-7.1-16.1-16-16.1zm-136.7 18.6H75.9V142c1.6 6.3 7.1 11.5 15.6 12.6l36.7 2.3c1.5 0 2.8 1.3 2.8 2.8 0 1.6-1.3 2.8-2.8 2.8z"/></svg>