<svg xmlns="http://www.w3.org/2000/svg" viewBox="0 0 300 300"><path d="M97.1 171.9c.1 5.4-4.3 9.9-9.8 10h-.2c-5.4.1-9.9-4.2-10-9.6v-34.8c-.2-3.4 1.5-5.2 2.1-5.8H65.8c.7.6 2.4 2.6 2.4 5.8v32.3c0 10.5 8.5 18 18.9 17.9 10.4.1 18.8-7.4 18.9-17.9v-32.3c-.1-3.4 1.6-5.2 2.4-5.8H95c.5.6 2.2 2.6 2.1 5.8v34.4zM44.2 187c-.5-.7-2.2-2.5-2.1-5.9v-22h11.7c2.1 0 4 1 5.2 2.1l-.3-7.6H42.1v-16.5h15.8c2.2-.1 4 .8 5.2 2.1l-.3-7.6h-32c.7.6 2.4 2.6 2.4 5.8v43.7c0 3.3-1.7 5.2-2.4 5.9h13.4zm65.3 19.3c.6-.4 7.5-8.1 7.6-13.4v-55.4c0-2.2-.9-4.3-2.4-5.8h13.4c-.6.6-2.3 2.4-2.4 5.8v47.8c0 11.6-5.3 20.7-16.2 21zm35.4-25.1c0 3.3 1.7 5.2 2.4 5.9h-13.4c.6-.7 2.3-2.6 2.4-6.2v-43.3c-.1-2.2-.9-4.3-2.4-5.8h13.4c-.7.6-2.4 2.4-2.4 5.8v43.6zm17.9-49.5h13.4m-45.7-34.1c3.3-4.3 7.1-5.7 11.3-5.8 8.2.2 14.7 6.7 14.8 14.8-.1 8.1-6.6 14.7-14.8 14.8-3.1-.2-6-1.1-8.6-2.8-2.9-1.8-5.6-5.6-6.9-7.2-1.4-1.8-3.6-2.8-5.8-2.8-4.4 0-7.9 3.5-7.9 7.9.1 4.2 3.6 7.7 7.9 7.9 3.7-.2 7.9-3.6 8.9-5.5v5.5c-2.3 2.5-5.6 3.9-8.9 3.8-6.5 0-11.8-5.3-11.7-11.7-.1-6.6 5.2-11.9 11.7-12 3.5.1 6.6 1.6 8.6 4.1 2 2.5 4.4 5.7 6.9 6.9 1.7 1.1 3.7 1.8 5.8 1.7 5.8.1 10.6-4.5 10.7-10.3v-.3c.1-5.9-4.7-10.7-10.7-10.7-5.1 0-9 2.9-12 8.9l.7-7.2zm124.8 74.3c0 5.5-4.5 10-10 10-5.6.1-10.2-4.4-10.3-10v-34.4c.1-3.4 1.8-5.2 2.4-5.8H224c.6.6 2.3 2.6 2.4 5.8v32.3c-.1 10.5 8.4 18 18.9 17.9 10.3.1 18.7-7.4 18.6-17.9v-32.3c.2-3.4 1.9-5.2 2.4-5.8h-13.4c.7.6 2.4 2.6 2.4 5.8v34.4zm-105.2-32.3c2.7-3 5.4-2.6 7.6-2.4h7.6v43.7c0 3.6-1.7 5.5-2.4 6.2h13.4c-.6-.7-2.3-2.5-2.4-5.9v-44h7.2c2.3-.1 4.2-.4 5.5 2.4l2.4-7.9h-36.5l-2.4 7.9m67 0v-7.9c-4.5-1.2-24.4-4.5-28.2 11-1 5.6 1.5 12.7 8.6 16.5 4.7 2.2 10.8 5.6 12.7 6.9 3.2 1.9 3.7 4.8 2.8 8.6-.9 4.1-11.1 13.2-24.1 1.7l2.8 9.6c8.1 3.2 21.1 1.9 27.2-4.8 5.9-6.6 4.9-16.5-1.4-20.6-4-2.8-14.3-8.4-16.2-9.3-1.6-.8-7.3-7.4-1-13.4 6.1-5.9 14.9-2.5 16.8 1.7z" fill="#212427"/></svg>