<svg xmlns="http://www.w3.org/2000/svg" viewBox="0 0 300 300"><path d="M255.5 135.9h-22c-.7 0-1.1.2-1.2 1l-8.1 40.5c-.9 4.5-3.6 7.4-7.9 8.7-5.7 1.7-10.5-2.6-9.4-8.3 2.2-11.2 4.5-22.4 6.8-33.6.5-2.7 1.1-5.4 1.6-8.2h-29.9c-5.4 0-10.7 1-15.6 3.3-2.5 1.1-4.9 2.5-7.4 3.8-.3-.3-.7-.6-1.1-.9-4.9-3.9-10.6-5.8-16.8-6.1-1 0-1.2.2-1.4 1.1-1.3 6.9-2.7 13.8-4.1 20.7-.3 1.5-.6 2.9-.8 4.4.7.1 1.2.2 1.8.3 3.2.9 4.8 3.8 4.1 7.5-2.3 11.5-4.5 22.9-6.8 34.4l-1.2 6.3h26.2c.3-1.8.7-3.7 1-5.5 2.3-11.6 4.6-23.1 7-34.7 1.2-6.1 5.7-10.5 12-11.3 4.8-.6 9.7-.8 14.5-1.2 1.8-.1 3.6-.1 5.4-.2h.7c-2 .9-4.1 1.6-6 2.6-5.3 2.7-9.7 6.4-12.3 11.9-1.8 3.9-2.4 8-2.4 12.2 0 5.6 1.5 10.7 4.8 15.3 4.4 6 10.4 9.3 17.7 10.4.9.1 1.8.2 2.7.4h3.4c1.5-.2 3.1-.4 4.6-.7 8.1-1.5 15.1-5.4 21-11 5.9-5.7 10.1-12.4 11.8-20.5 1.8-8.4 3.4-16.8 5-25.2 1.1-5.3 2.1-10.6 3.2-16 0-.2.1-.4.2-.6v-.7c-.4-.2-.8-.1-1.1-.1zm-206.7 4.5v.1c24 1.6 47.9 3.1 71.9 4.7v.2c-24.6 1.1-49.2 2.3-73.8 3.4v.1c23.7 1.6 47.4 3.1 71.1 4.7v.2c-24.2 1.1-48.3 2.3-72.5 3.4v.1l59.7 3.9c0 .3 0 .4-.1.5-2.7 13.6-5.5 27.3-8.2 40.9-.5 2.6-1 5.3-1.5 7.9h26.2c.1-.2.1-.3.2-.5l5.1-25.8c2.9-14.8 5.9-29.6 8.8-44.4.3-1.4.5-2.8.8-4.3-29.3 1.6-58.5 3.2-87.7 4.9zm75.9-15.7c8.6 0 15.7-6.4 16.7-15 .9-8.3-4.7-16.2-12.9-18-.7-.2-1.4-.3-2.1-.4H123c-.7.1-1.4.3-2.2.5-8.2 1.9-13.8 9.8-12.8 17.9 1 8.6 8 15 16.7 15z" fill="#212427"/></svg>