<svg xmlns="http://www.w3.org/2000/svg" viewBox="0 0 300 300"><path d="M244.9 179.1l16.1-44.5s-12 0-24.1 2.4l-15.2 42 23.2.1zm-2.7-56.5l-3.1 8.5c12.1-2.4 24.1-2.4 24.1-2.4l3.1-8.5s-12 0-24.1 2.4zm-87 54c8.2 1.6 16.6 2.4 25.3 2.4 13.7 0 19.4-1.4 26.5-5 6.1-3.1 10.1-6.4 11.8-12.1 1.5-4.9-.4-9.4-4.8-12.4-4.4-2.9-8.6-4.3-13.6-7.1-4.4-2.4-6.8-4.2-6.5-6.8.6-5.3 6.3-7.1 14.1-7.1 7.6 0 15.1.7 22.4 2l3-8.1c-8.2-1.6-16.7-2.4-25.3-2.4-13.7 0-19.4 1.4-26.5 5-6.1 3.1-10.1 6.4-11.8 12.1-1.5 4.9.4 9.4 4.8 12.4 4.4 2.9 8.6 4.3 13.6 7.1 4.4 2.4 6.8 4.2 6.5 6.8-.6 5.3-6.3 7.1-14.1 7.1-7.6 0-15.1-.7-22.4-2l-3 8.1zm-8.8 2.5l14.9-41.2c1.2-3.3 1.3-9.4-2.1-12.7-3.4-3.3-7.4-5-14.8-5s-13.4 1.9-18.2 3.8c-2.6 1-6.4 3-10.8 5.6-.4-1.7-1.2-3.2-2.4-4.4-3.4-3.3-7.4-5-14.8-5S84.8 122.1 80 124c-2.6 1-6.4 3-10.8 5.6-.4-1.7-1.2-3.2-2.4-4.4-3.4-3.3-7.4-5-14.8-5l-21.3 58.9H54l10.7-29.4c1.9-5.3 7.2-10.4 10.1-12.7 3.7-2.8 20.1-7.4 15.7 5l-13.4 37.1h23.2l10.7-29.4c1.9-5.3 7.2-10.4 10.1-12.7 3.7-2.8 20.1-7.4 15.7 5l-13.4 37.1h23z" fill="#212427"/></svg>