<svg xmlns="http://www.w3.org/2000/svg" viewBox="0 0 300 300"><path d="M12 126.4c.3 0 .6.1.9.1h21.7c.6 0 1 .2 1.4.7 8.6 11 17.1 22 25.7 33 .2.2.4.5.7.7v-34.2h13.4v46H53.6c-.5 0-.8-.2-1.2-.6-8.7-11.2-17.5-22.4-26.3-33.6-.2-.2-.4-.5-.8-.7v34.9H11.9c.1-15.5.1-30.9.1-46.3zm99.1-.7h12.7c3.1 0 6.2.1 9.2 1.1 4.2 1.4 6.7 4.3 7.4 8.7.2 1.3.3 2.7.3 4v21.3c0 1.2-.2 2.4-.5 3.6-1.1 4.3-3.9 6.8-8.1 7.8-2.3.5-4.7.8-7 .8-9.3.1-18.6.1-27.9 0-3 0-6.1-.2-9-1.5-3.7-1.6-5.9-4.5-6.4-8.5-.2-1.5-.3-3-.3-4.6 0-6.3-.1-12.7 0-19 0-1.8.2-3.7.6-5.5 1.1-4.1 3.9-6.5 8-7.5 2.7-.7 5.6-.8 8.4-.8 4.2.1 8.4.1 12.6.1zm0 35.8h11.5c1 0 1.9-.1 2.9-.2 1.4-.2 2.2-1 2.4-2.5.1-.6.1-1.1.1-1.7v-15.5c0-.6-.1-1.2-.2-1.8-.2-1.3-1-2.1-2.3-2.3-.6-.1-1.2-.2-1.7-.2h-23.6c-1.2 0-2.4 0-3.6.2-1.3.2-2.1.9-2.3 2.2-.1.7-.2 1.5-.2 2.2v15c0 .6.1 1.3.1 1.9.2 1.5 1 2.3 2.6 2.5.6.1 1.1.1 1.7.1 4.2.1 8.4.1 12.6.1zm182.5 11H278c-.6 0-.8-.2-1.1-.7-1.2-2.3-2.4-4.5-3.5-6.8-.2-.4-.5-.6-1-.6h-26.2c-.5 0-.7.2-1 .6l-3.6 6.9c-.1.2-.4.5-.6.5h-15.1l.3-.6c8.2-15 16.3-30 24.5-45 .3-.5.6-.5 1-.5h16.1c.6 0 .9.2 1.1.7 4.5 8.3 9 16.5 13.5 24.8l10.8 19.8c.1.3.2.6.4.9zm-43.1-18h17.7c-3-5.6-5.9-11.2-8.9-16.8-3 5.7-5.9 11.2-8.8 16.8zm-44.4 18h-19c-.3 0-.7-.2-1-.4-8.4-7.8-16.7-15.5-25.1-23.3-.1-.1-.2-.2-.4-.3.4-.4.7-.7 1-.9 7.5-6.9 14.9-13.8 22.4-20.7.4-.4.8-.5 1.3-.5h17.8c-8.5 7.2-16.8 14.3-25.2 21.5 9.5 8.2 18.9 16.3 28.3 24.4-.1.1-.1.2-.1.2zm-59.7 0v-46h14v46h-14zm76.7 0h-14v-46h14v46z" fill="#212427"/></svg>