<svg xmlns="http://www.w3.org/2000/svg" viewBox="0 0 300 300"><path d="M226.1 122.5c-5.1-.1-5.7.1-21 .3V176h13.8v-11.4c2.8 0 5.7.1 7.3-.1 18.8-1 21.4-16.4 21.4-20.6.1-7.3-2.5-12.3-5.7-15.6-3.4-3.4-8-5.6-15.8-5.8zm6.5 21.3c-.3 7-6.2 9.4-13.6 8.8v-18c6.9-1.2 13.9 1.3 13.6 9.2zm47.3 1.8l-11.3-4c-1.2-.5-2.2-1.6-2.3-2.6-.1-2 1.5-3.8 5.1-4.3 3.2-.4 6.1-.4 12.3 1v-13c-5.5-.8-9.3-.7-12.2-.8-9.2-.3-18.3 5.5-18.9 17-.3 5.7 2.3 12.1 9 14.5l10.5 3.8c2.6 1.1 2.7 2.2 2.8 3.1.1 1.6-1.4 2.8-3.5 3.6-2.7 1.1-10.8 1.1-17.7-1V176c2.3.4 9 1.8 17.8 1.1 7.7-.7 17.3-5.2 17.5-17.3.1-5.2-1.5-11.3-9.1-14.2zm-190.4-3H74.6v-19.8H60.8V176h13.8v-21.4h14.9V176h13.8v-53.2H89.5zm26.8-19.8h13.8v53.1h-13.8zm61.8 0h13.8v53.1h-13.8zm-21.1 0h-13.8V176h28v-12.1H157zm-124.5-.3c-5.1-.1-5.7.1-21 .3V176h13.8v-11.4c2.7 0 5.7.1 7.3-.1 18.8-1 21.4-16.4 21.4-20.6.1-7.3-2.5-12.3-5.7-15.6-3.4-3.4-8-5.6-15.8-5.8zm6.5 21.3c-.3 7-6.2 9.4-13.6 8.8v-17.9c6.9-1.3 13.9 1.2 13.6 9.1z" fill="#212427"/></svg>