<svg xmlns="http://www.w3.org/2000/svg" viewBox="0 0 300 300"><path d="M258.4 130.3c-3-17.2-54.6-22.6-115.3-12-26.5 4.6-50.4 11.5-68.6 19.2 1-.2 2.1-.3 3.2-.3 3.2 0 7.7.8 7.7 5.7v1.6h-5.7v-1.4c0-1.2-.8-2.1-2.1-2.1-1.4 0-1.9.8-2.1 1.5-.1.3-.1.7 0 1.2.6 2.7 9.3 4.1 10.2 8.8.1.5.3 1.8 0 3.7-.5 3.8-3.9 5.2-8 5.2-4.3 0-8.3-1.5-8.3-6.6V153h6.1v2.2c0 1.2.9 2.1 2.3 2.1 1.5 0 2-.8 2.2-1.5.1-.4.2-1.1-.1-1.7-1.2-2.9-9.3-4.3-10.2-8.9-.2-1.1-.2-2.1-.1-3.1.3-1.6 1-2.8 2.1-3.6-21.7 9.9-34.7 20.8-33.1 30.1 3 17.2 54.6 22.6 115.3 12 27.1-4.7 51.4-11.8 69.7-19.7-.9.2-2 .3-3 .3-4 0-7.6-1.5-8-5.6-.1-.8-.1-1.1-.1-1.5v-9.6c0-.4.1-1.1.1-1.5.5-4.3 4-5.6 8-5.6s7.6 1.4 8 5.6c.1.7.1 1.5.1 1.5v.8H223V144s0-.5-.1-.9c-.1-.5-.5-1.7-2.3-1.7-1.7 0-2.1 1.1-2.3 1.7-.1.3-.1.7-.1 1.1v10.4c0 .3 0 .6.1.9.1.6.7 1.6 2.3 1.6 1.6 0 2.2-1 2.3-1.6 0-.3.1-.6.1-.9v-3.3h-2.3V148h8.1v6.1c0 .4 0 .7-.1 1.5-.2 1.9-1 3.2-2.2 4.1 21.1-9.6 33.5-20.2 31.9-29.4zm-156.3 30.4l-3-20.6H99l-3.1 20.6h-6.1l4.2-22.8h10l4.2 22.8h-6.1zm30.2 0l-.2-20.5h-.1l-3.8 20.5h-5.8l-3.8-20.5h-.1l-.1 20.5h-5.7l.5-22.8h9.3l2.8 17.4h.1l2.8-17.4h9.3l.5 22.8h-5.7zm27.4-4.3c-.5 3.8-3.9 5.1-8 5.1-4.2 0-8.2-1.5-8.2-6.5v-1.7h6v2.2c0 1.2.9 2 2.3 2 1.5 0 2-.8 2.2-1.5.1-.4.2-1.1-.1-1.7-1.2-2.9-9.2-4.3-10.1-8.9-.2-1.1-.2-2-.1-3 .6-3.7 3.9-5 7.9-5 3.2 0 7.6.8 7.6 5.7v1.6h-5.6v-1.4c0-1.2-.8-2-2.1-2-1.4 0-1.9.8-2.1 1.5-.1.2-.1.7 0 1.2.6 2.6 9.2 4 10.1 8.8.3.3.5 1.6.2 3.6zm21.4-.6c-.4 4.2-3.8 5.6-7.9 5.6-4.2 0-7.5-1.4-7.9-5.6 0-.2-.1-1.1-.1-1.5V138h5.7v16.8c0 .3 0 .6.1.9.1.6.6 1.7 2.2 1.7s2.1-1.1 2.2-1.7c0-.2.1-.6.1-.9V138h5.8v16.3c-.1.4-.2 1.3-.2 1.5zm25.5 4.7h-8.1l-5.6-18.5h-.1l.3 18.5h-5.6V138h8.5l5.2 17.9h.1L201 138h5.6v22.5z" fill="#212427"/></svg>