<svg xmlns="http://www.w3.org/2000/svg" viewBox="0 0 300 300"><path d="M107.1 173.9c-10.2 0-19.6-3.1-25.9-8.7-4.8-4.3-7.1-10.1-7.1-16.1 0-5.9 2.4-11.8 7.1-16 5.9-5.3 16.2-8.7 25.9-8.7 10.8 0 19.4 2.7 26 8.7 4.7 4.3 7 10.1 7 16 0 5.7-2.4 11.8-7 16.1-6.2 5.7-15.8 8.7-26 8.7v-6.5c5.4 0 10.4-1.9 13.9-5.3 3.5-3.5 5.1-7.7 5.1-12.9 0-5-1.7-9.6-5.1-12.9-3.5-3.4-8.6-5.3-13.9-5.3s-10.5 1.9-13.9 5.3c-3.3 3.3-5.1 8-5.1 12.9s1.8 9.6 5.1 12.9c3.5 3.4 8.6 5.3 13.9 5.3v6.5zm-74.4-49.4c-5.4 0-11.6 1-16.9 3.4C11 130 7 133.5 7 139.3c0 5.2 3.3 8.3 3.2 8.2 1.4 1.3 3.7 3.5 9.6 4.8 2.7.6 8.3 1.5 14 2.1 5.6.6 11.1 1.2 13.4 1.7 1.8.5 4.8 1.1 4.8 4.4 0 3.4-3.2 4.4-3.7 4.6-.5.2-4.3 2-11.2 2-5 0-11.1-1.5-13.3-2.3-2.5-.9-5.2-2.1-7.7-5.1-.6-.8-1.6-2.8-1.6-4.9H8.4v17.3h6.9v-2.3c0-.3.3-1.4 1.5-.8 1.4.7 5.6 2.3 10 3.2 3.6.8 5.9 1.3 10.4 1.3 7.3 0 11.3-1.2 14-2 2.6-.7 5.7-2 8.3-4.1 1.4-1.1 4.4-3.9 4.4-9.1 0-5-2.7-8-3.6-9-1.3-1.3-2.8-2.3-4.4-3-1.4-.7-3.6-1.5-5.5-1.9-3.5-.9-11.5-1.9-15.4-2.3-4-.4-11-1-13.8-1.9-.8-.3-2.6-1.1-2.6-3.1 0-1.4.8-2.6 2.3-3.6 2.5-1.5 7.4-2.5 12.6-2.5 6.1 0 11.3 1.4 14.6 2.9 1.1.5 2.4 1.2 3.5 2.1 1.2 1 2.8 3 3.4 5.7h5.5v-15.1h-6.2v1.8c0 .6-.6 1.3-1.7.7-2.5-1.5-10.3-4.6-19.9-4.6m135.7 2.7l30.2 27.3-.3-18.4c0-2.4-.5-3.4-3.1-3.4h-5.7v-5.5h25.8v5.5h-5.5c-2.7 0-2.8.8-2.9 3.4l.5 35.1h-8.8l-34.8-31v22c0 2.4.1 3.5 2.6 3.5h6.2v5.5h-25.4v-5.5h5.9c2.2 0 2.1-2.1 2.1-3.6v-25.7c0-1.7-.2-3.6-3.7-3.6h-4.8v-5.5h21.7v-.1zm76.5 38.5c.2 0 1.3 0 1.5-.1.6-.2 1-.6 1.2-1.1.1-.2.1-1 .1-1.2v-8.7c0-.2 0-.3-.4-.8s-15.8-18-16.5-18.8c-.9-1-2.4-2.4-4.8-2.4h-5.4v-5.5H251v5.5h-3.7c-.8 0-1.4.8-.7 1.7 0 0 10.2 12.2 10.3 12.3.1.1.2.2.3 0 .1-.1 10.4-12.2 10.5-12.3.5-.6.2-1.7-.9-1.7h-3.7v-5.5h24.8v5.5h-5.5c-2 0-2.8.4-4.3 2.1-.7.8-16.3 18.6-16.7 19.1-.2.3-.2.6-.2.8v8.7c0 .2 0 1 .1 1.2.2.4.6.9 1.2 1.1.2.1 1.3.1 1.5.1h5.7v5.5h-30.1v-5.5h5.3z" fill="#212427"/></svg>