<svg xmlns="http://www.w3.org/2000/svg" viewBox="0 0 300 300"><path d="M29.9 170.4H18.7v-31.9H5.9v-9.6h37.5v9.6H29.9v31.9zm18.8-30.5c1.7-9.8 10.4-11.2 18.7-11.2 14.3 0 19.3 3.5 19.3 18.5 0 15.4-.4 23.5-19 23.5-7.4 0-16.2-.6-18.7-9.1-.8-2.8-.9-5.7-.9-8.6v-3c0-3.4 0-6.8.6-10.1zm10.8 12.3c0 5.8.1 9 7 9 7.6 0 8.8-1.9 8.8-9 0-2 .1-4 .1-6 0-5.5-.9-8-6.8-8-8.7 0-8.8.9-9 11.6l-.1 2.4zm59.7-10.4c0-4.2-1.5-4.8-5.5-4.8h-1.1c-2.9 0-6 .1-6 3.8 0 2.5.7 3.7 3.4 3.9 9.6.8 21-1.1 21 12.2 0 3.5 0 8-2.9 10.5-3.4 2.9-8.1 3.1-12.5 3.1h-2.7c-11.4 0-17.4-.5-17.4-13.7H106c0 3.1.7 5 4.2 5h4.8c2.8 0 5-.4 5-4.1 0-3.7-2.2-3.7-5.3-3.9-12-.8-19.3.3-19.3-13.5 0-7.2 2.9-11 10.3-11.6 2.4-.2 4.8-.3 7.3-.3 9.6 0 16.8.2 16.8 11.9 0 .4-.1.9-.1 1.3l-10.5.2zm57.2 28.6h-11.1v-16.3h-14.4v16.3h-11.1v-41.5h11.1v15.7h14.4v-15.7h11.1v41.5zm21.7 0H187v-41.5h11.1v41.5zm10.7-41.5h22.6c7.5 0 12.4 2.1 12.4 10.6 0 4.8-.4 8.6-6.5 9.6v.4c5.6.5 7.1 3.5 7.1 9 0 9.3-3.1 11.9-12.9 11.9h-22.7v-41.5zm18.2 16.6c3-.1 5.7.2 5.7-3.5 0-3-.8-3.9-3.8-3.9h-9v7.5h7.1v-.1zm.3 15.7c3.5 0 6-.1 6-4.1 0-3.9-1.8-4-5.3-4h-8.1v8.1h7.4zm51.4 9.2H290l-12.6-41.5h-16.8l-12.4 41.5h11.6l2.4-8.3h14.2l2.3 8.3zM264.3 154l4.8-16.8L274 154h-9.7z" fill="#212427"/></svg>