<svg xmlns="http://www.w3.org/2000/svg" viewBox="0 0 72.5 53.2"><path d="M2.2 53.2c-.8 0-1.6.1-2-.8s-.3-1.7.2-2.6c2.2-3.4 4.5-6.8 6.7-10.3.5-.7 1.1-1 1.9-1h53.9c1.2 0 2 .4 2.6 1.4 2.1 3.3 4.3 6.6 6.4 9.9.3.5.5 1 .5 1.6.1 1.2-.5 1.8-1.7 1.8H2.2zm33.9-7.7h26.2c1.5 0 1.7-.3.9-1.7l-1.5-2.7c-.3-.7-.8-.9-1.5-.9h-48c-.9 0-1.4.2-1.7 1-.4.9-.9 1.7-1.4 2.6-.8 1.4-.6 1.7 1 1.7h26zm-8.3 4h16.7c-.1-.7-.1-1.4-.3-1.9-.1-.3-.5-.7-.7-.7H28.8c-.2 0-.6.2-.7.4-.1.7-.2 1.4-.3 2.2zM36 37.2H9.9c-1.4 0-1.6-.2-1.6-1.6V4.5C8.3 1.6 9.9 0 12.8 0h46.4c2.9 0 4.5 1.6 4.5 4.5v31.2c0 1.3-.2 1.5-1.5 1.5H36zm0-33.6H13.3c-.9 0-1.3.3-1.3 1.3v27.4c0 1 .4 1.3 1.3 1.3h45.4c.9 0 1.3-.4 1.3-1.3V5.2c0-1.3-.1-1.4-1.4-1.4-7.6-.2-15.1-.2-22.6-.2z" fill="#23232b"/></svg>