<svg id="Слой_1" xmlns="http://www.w3.org/2000/svg" viewBox="0 0 274.7 92.3"><style>.st0{fill:#00a9df}.st1{fill:#fff}</style><path class="st0" d="M116.8 31.2l2.1-5.4H107l2.1 5.4z"/><path class="st1" d="M111.5 19.8v3.6h2.8v-3.8c0-.2 0-.3.1-.5l2.2-4.6-2.1-6.5h-3.3l-2.1 6.5 2.3 4.9c.1.1.1.3.1.4z"/><path class="st0" d="M119.6 40h1.1v-6.3h-15.5V40h1.2c.7 0 1.2.6 1.2 1.2v36.1c0 .7-.6 1.2-1.2 1.2h-1.2v6.9h15.5v-6.9h-1.1c-.7 0-1.2-.6-1.2-1.2V41.2c0-.7.6-1.2 1.2-1.2zm-4.4 37.3c0 .7-.6 1.2-1.2 1.2h-2.1c-.7 0-1.2-.6-1.2-1.2V41.2c0-.7.6-1.2 1.2-1.2h2.1c.6 0 1.2.5 1.2 1.2v36.1z"/><path d="M114 40h-2.1c-.6 0-1.2.5-1.2 1.2v36.1c0 .6.5 1.2 1.2 1.2h2.1c.6 0 1.2-.5 1.2-1.2V41.2c0-.7-.6-1.2-1.2-1.2z"/><path d="M121.8 42.3c.6 0 1.2-.5 1.2-1.2v-8.7c0-.6-.5-1.2-1.2-1.2h-2.6l2.4-6.2c.1-.4.1-.8-.1-1.1-.2-.3-.6-.5-1-.5h-3.8v-3.5l2.3-4.8c.1-.3.1-.6.1-.9l-2.5-7.7c-.2-.5-.6-.8-1.1-.8h-5c-.5 0-1 .3-1.1.8l-2.5 7.7c-.1.3-.1.6.1.9l2.4 5v3.3h-3.9c-.4 0-.8.2-1 .5s-.3.7-.1 1.1l2.4 6.2h-2.6c-.6 0-1.2.5-1.2 1.2v8.7c0 .6.5 1.2 1.2 1.2h1.2V76h-1.2c-.6 0-1.2.5-1.2 1.2v9.3c0 .6.5 1.2 1.2 1.2H122c.6 0 1.2-.5 1.2-1.2v-9.2c0-.6-.5-1.2-1.2-1.2h-1.1V42.4l.9-.1zm-10.4-22.9l-2.3-4.9 2.1-6.5h3.3l2.1 6.5-2.2 4.6c-.1.2-.1.3-.1.5v3.8h-2.8v-3.6c0-.1 0-.3-.1-.4zm-4.4 6.4h11.9l-2.1 5.4h-7.7l-2.1-5.4zM120.7 40h-1.1c-.6 0-1.2.5-1.2 1.2v36.1c0 .6.5 1.2 1.2 1.2h1.1v6.9h-15.5v-6.9h1.2c.6 0 1.2-.5 1.2-1.2V41.2c0-.6-.5-1.2-1.2-1.2h-1.2v-6.3h15.5V40z"/><path class="st1" d="M2.6 58.7v-3.1l3.2-3c6.4-5.9 9.4-9.2 9.5-12.8 0-2.5-1.3-4.6-4.9-4.6-2.4 0-4.4 1.2-5.8 2.3l-1.5-3.7C5 32.2 8 31 11.4 31c6 0 9 3.8 9 8.2 0 4.8-3.4 8.6-8.2 13l-2.4 2.1v.1H21v4.3H2.6zm33.8 0v-6.9H24.1v-3.4l11.1-16.9h6.1v16.4h3.5v3.9h-3.5v6.9h-4.9zm0-10.9v-7.4c0-1.5.1-3.1.2-4.7h-.1c-.9 1.7-1.6 3.1-2.4 4.6l-5 7.4v.1h7.3zm21.3-17.3h35.6v10.8H70.9v13.4h20.9v10.7H70.9v23.4H57.7V30.5zm107 58.3l-5.3-10.5c-2.1-4.1-3.6-7.1-5.2-10.5h-.2c-1.2 3.4-2.6 6.4-4.5 10.4l-4.8 10.6h-15l16.8-29.5-16.2-28.7h15.1l5.1 10.6c1.7 3.5 3 6.4 4.3 9.7h.2c1.4-3.7 2.5-6.3 4-9.6l4.9-10.6h15L162.7 59 180 88.8h-15.3z"/><path class="st0" d="M218.8 64.1h-21.4V78h24v10.8h-37.1V30.5h35.9v10.8h-22.7v12.1h21.4v10.7zm8.7-32.8c4.2-.7 10.5-1.3 17.5-1.3 8.6 0 14.7 1.3 18.8 4.6 3.5 2.8 5.4 6.9 5.4 12.2 0 7.4-5.3 12.5-10.3 14.3v.3c4 1.6 6.3 5.5 7.8 10.8 1.8 6.6 3.6 14.2 4.7 16.4h-13.5c-.9-1.7-2.3-6.4-4-13.6-1.6-7.3-4.1-9.2-9.5-9.3h-3.9v22.9h-13V31.3zm13 25.1h5.2c6.5 0 10.4-3.3 10.4-8.4 0-5.3-3.7-8.1-9.7-8.1-3.2 0-5 .2-5.9.4v16.1z"/></svg>